PathFileType	4	(X/Y/Z)	..\data\2014034\dynamic\2014034_C4_04.trc
DataRate	CameraRate	NumFrames	NumMarkers	Units	OrigDataRate	OrigDataStartFrame	OrigNumFrames
100.000000	100.000000	4	52	mm	100.000000	135	180
Frame#	Time	L_IAS			L_IPS			R_IPS			R_IAS			L_FTC			L_FLE			L_FME			L_FAX			L_TTC			L_FAL			L_TAM			L_FCC			L_FM1			L_FM2			L_FM5			R_FTC			R_FLE			R_FME			R_FAX			R_TTC			R_FAL			R_TAM			R_FCC			R_FM1			R_FM2			R_FM5			CV7			TV10			SXS			SJN			L_SIA			L_SRS			L_SAA			L_SAE			L_HLE			L_HME			L_UOA			L_RSP			L_UHE			L_HM2			L_HM5			R_SIA			R_SRS			R_SAA			R_SAE			R_HLE			R_HME			R_UOA			R_RSP			R_UHE			R_HM2			R_HM5			
		X1	Y1	Z1	X2	Y2	Z2	X3	Y3	Z3	X4	Y4	Z4	X5	Y5	Z5	X6	Y6	Z6	X7	Y7	Z7	X8	Y8	Z8	X9	Y9	Z9	X10	Y10	Z10	X11	Y11	Z11	X12	Y12	Z12	X13	Y13	Z13	X14	Y14	Z14	X15	Y15	Z15	X16	Y16	Z16	X17	Y17	Z17	X18	Y18	Z18	X19	Y19	Z19	X20	Y20	Z20	X21	Y21	Z21	X22	Y22	Z22	X23	Y23	Z23	X24	Y24	Z24	X25	Y25	Z25	X26	Y26	Z26	X27	Y27	Z27	X28	Y28	Z28	X29	Y29	Z29	X30	Y30	Z30	X31	Y31	Z31	X32	Y32	Z32	X33	Y33	Z33	X34	Y34	Z34	X35	Y35	Z35	X36	Y36	Z36	X37	Y37	Z37	X38	Y38	Z38	X39	Y39	Z39	X40	Y40	Z40	X41	Y41	Z41	X42	Y42	Z42	X43	Y43	Z43	X44	Y44	Z44	X45	Y45	Z45	X46	Y46	Z46	X47	Y47	Z47	X48	Y48	Z48	X49	Y49	Z49	X50	Y50	Z50	X51	Y51	Z51	X52	Y52	Z52	

136	1.35	1682.77685546875	1015.287658691406	-424.7153930664064	1470.831176757813	1041.67138671875	-328.1746215820313	1472.450073242188	1041.970336914063	-231.6711425781251	1688.17578125	1025.221069335938	-148.7765502929688	1600.92236328125	954.3775634765627	-467.7468872070314	1734.956298828125	520.1128540039064	-429.0048217773439	1750.067138671875	518.9947509765626	-282.9591369628907	1723.137573242188	459.9990539550782	-429.3809509277345	1806.567993164063	462.5923156738282	-379.3092956542969	1708.78857421875	71.12428283691408	-399.4313354492189	1730.808227539063	83.88829040527345	-301.1226196289063	1659.240844726563	18.88705253601075	-350.2466735839844	1869.988037109375	25.02652740478516	-303.5278015136719	1880.801879882813	39.38747024536134	-368.1353149414063	1844.853271484375	17.89806175231934	-419.8174743652345	1590.322021484375	943.9409179687502	-91.16987609863283	1602.037475585938	514.2332763671876	-85.03357696533205	1637.8701171875	476.8852844238282	-220.2320404052735	1559.677734375	476.8253479003907	-79.43567657470705	1612.310546875	414.7188415527345	-124.3028640747071	1240.638916015625	248.5359649658204	-109.206283569336	1278.86962890625	219.9098052978516	-197.7544860839844	1189.396606445313	266.6536865234376	-172.6983795166016	1248.550537109375	64.42749023437501	-193.8402709960938	1259.118530273438	67.45364379882814	-131.9515533447266	1220.357177734375	94.77980804443361	-90.91155242919923	1571.168090820313	1565.040771484375	-325.1644287109376	1463.044677734375	1302.323364257813	-297.7043762207032	1742.282836914063	1251.601684570313	-314.2298583984376	1686.947143554688	1460.238037109375	-315.6655578613282	1458.937622070313	1330.71630859375	-415.3316650390626	1519.0087890625	1485.741821289063	-433.0627441406251	1578.948486328125	1478.8759765625	-512.0217895507814	1647.107299804688	1456.632690429688	-530.1121215820314	1533.953002929688	1124.0107421875	-555.8210449218751	1480.105224609375	1140.779418945313	-472.4419555664064	1482.613647460938	1117.76220703125	-530.1102294921876	1559.81103515625	850.2317504882815	-482.0337524414064	1510.70703125	859.0679321289065	-553.1534423828126	1564.675659179688	742.3974609375001	-476.187957763672	1472.533935546875	769.7894287109377	-538.8397216796876	1459.03466796875	1343.413940429688	-198.4461059570313	1514.537231445313	1497.267700195313	-209.7696685791016	1569.292846679688	1499.61376953125	-135.6506652832032	1626.894287109375	1493.2158203125	-112.865463256836	1563.892456054688	1161.669189453125	-23.9683952331543	1536.503662109375	1137.116088867188	-113.5149688720703	1522.537353515625	1130.411743164063	-55.65649032592775	1719.800903320313	912.582214355469	-28.7507724761963	1651.070434570313	897.9495239257815	17.40581130981446	1770.482543945313	837.037536621094	-5.43468475341797	1665.462158203125	801.432800292969	18.89715003967286	
137	1.36	1694.641357421875	1016.268493652344	-426.2757568359376	1482.84521484375	1043.618896484375	-330.0469055175782	1484.859252929688	1043.383178710938	-233.7524108886719	1699.69091796875	1026.5556640625	-149.5387573242188	1612.398681640625	955.9102172851565	-469.4985351562501	1739.57568359375	519.6138916015626	-429.7622680664064	1754.623291015625	518.5380859375001	-283.9063110351563	1726.851318359375	459.623016357422	-429.8970336914064	1810.772705078125	461.3857727050782	-380.2879943847657	1708.996459960938	71.01998138427736	-399.3444824218751	1731.172119140625	84.04830932617189	-301.1358032226563	1659.261352539063	19.06404304504395	-350.2832336425782	1869.981079101563	25.02053833007813	-303.3836975097657	1881.222290039063	39.20992660522462	-368.1463317871094	1844.859008789063	17.82769775390625	-420.0575256347657	1602.635009765625	945.2690429687502	-92.94567871093751	1626.555786132813	516.1199340820314	-85.60909271240236	1662.671264648438	479.6742248535157	-221.1633605957032	1584.597778320313	478.748748779297	-80.04111480712892	1637.588745117188	416.8147277832032	-125.6491928100586	1265.349365234375	251.8670654296876	-110.3570022583008	1303.228759765625	223.3038787841797	-199.1108551025391	1213.604248046875	269.6425170898438	-173.6582641601563	1274.011352539063	67.35649871826173	-193.9770507812501	1284.751708984375	70.48559570312501	-132.1580200195313	1245.644165039063	98.50019836425784	-91.46197509765626	1583.597045898438	1566.696044921875	-326.7146301269532	1474.786254882813	1304.283813476563	-300.2022399902344	1754.26220703125	1253.127563476563	-314.9765625000001	1699.169189453125	1461.741455078125	-316.7587280273438	1471.76416015625	1332.373168945313	-417.914764404297	1531.72216796875	1487.395629882813	-435.040008544922	1592.095581054688	1480.402709960938	-513.7390747070314	1660.536010742188	1458.147094726563	-531.1964721679689	1551.710571289063	1124.5048828125	-559.3159179687501	1496.2451171875	1140.238891601563	-476.6350708007814	1500.268310546875	1117.205688476563	-534.1961059570314	1582.090576171875	851.1497802734377	-485.6222229003907	1533.069946289063	859.1251220703127	-556.8036499023439	1589.531982421875	743.5451049804689	-480.293670654297	1496.635498046875	769.1062011718752	-542.7042236328126	1470.451293945313	1344.813842773438	-201.2574615478516	1526.424072265625	1498.765625	-211.7769012451172	1580.759643554688	1501.107666015625	-137.3206481933594	1638.193237304688	1494.652099609375	-114.0533523559571	1572.13916015625	1163.128784179688	-26.49949073791505	1544.114501953125	1139.53662109375	-116.2110290527344	1530.423950195313	1132.881591796875	-58.29724884033205	1722.745971679688	910.799499511719	-30.95629501342774	1654.054077148438	897.9375000000002	15.33363914489746	1771.463989257813	833.8735961914065	-7.84189033508301	1665.237670898438	801.1467285156252	16.83663940429688	
138	1.37	1706.425048828125	1017.279296875	-427.7162170410157	1494.769409179688	1045.600708007813	-331.7923583984376	1497.162475585938	1044.9453125	-235.6749877929688	1711.11767578125	1027.915649414063	-150.1708068847657	1623.72216796875	957.457702636719	-471.161834716797	1743.836669921875	519.1871337890626	-430.4234008789064	1758.917358398438	518.1029052734376	-284.7089843750001	1730.203857421875	459.2969055175782	-430.3374328613282	1814.556030273438	460.2431640625001	-381.1661071777344	1709.174072265625	70.90191650390626	-399.2756652832032	1731.593017578125	84.26173400878908	-301.2060241699219	1659.209106445313	19.29537773132325	-350.3516235351563	1869.987548828125	24.94464302062989	-303.2693786621094	1881.564697265625	38.89134216308594	-368.1132202148438	1844.805908203125	17.61554527282715	-420.2491455078126	1614.857055664063	946.7801513671877	-94.64590454101564	1650.783325195313	518.4307861328126	-86.49383544921876	1686.989013671875	482.9646911621095	-222.4303894042969	1609.261352539063	480.9913635253907	-81.02422332763673	1662.743896484375	419.3517456054689	-127.2466583251953	1290.70458984375	253.693832397461	-111.562973022461	1328.317260742188	225.6992187500001	-200.5739288330079	1238.061279296875	270.3353881835938	-174.5567626953125	1302.69384765625	69.48997497558595	-194.2608184814454	1313.64208984375	73.05117034912111	-132.4829711914063	1273.960693359375	100.8479156494141	-92.02188873291017	1595.898193359375	1568.366333007813	-328.0838623046876	1486.4052734375	1306.27294921875	-302.6638488769532	1766.139404296875	1254.709838867188	-315.6400756835938	1711.271850585938	1463.24462890625	-317.6788940429688	1484.356567382813	1334.076171875	-420.3050842285157	1544.231323242188	1489.09326171875	-436.8242187500001	1604.973266601563	1481.954711914063	-515.2796020507814	1673.627563476563	1459.740356445313	-532.2395629882814	1569.5712890625	1125.0302734375	-562.6795043945314	1512.593627929688	1139.56103515625	-480.6544494628907	1518.027954101563	1116.629516601563	-538.1120605468751	1604.67724609375	852.1705322265627	-489.2766723632814	1555.737915039063	859.2976684570315	-560.4902954101564	1614.861083984375	744.8518066406251	-484.6046142578126	1521.157836914063	768.5312500000002	-546.6828613281251	1481.657104492188	1346.135620117188	-204.1300659179688	1538.158447265625	1500.212158203125	-213.6825103759766	1592.029052734375	1502.52294921875	-138.8558044433594	1649.149658203125	1496.011596679688	-115.0900192260742	1580.12255859375	1164.519897460938	-29.00422096252442	1551.585083007813	1141.872436523438	-118.8741073608399	1538.12158203125	1135.288940429688	-60.93721008300783	1725.471923828125	909.170349121094	-33.07624816894532	1656.77978515625	897.9984130859377	13.26762199401856	1772.273559570313	830.9966430664065	-10.03076267242432	1664.939453125	801.0220336914065	14.77230072021485	
139	1.38	1718.123168945313	1018.370849609375	-429.0548706054689	1506.600219726563	1047.60107421875	-333.3916320800782	1509.338745117188	1046.627319335938	-237.4015197753907	1722.493286132813	1029.314575195313	-150.7675476074219	1634.878784179688	959.0066528320315	-472.7308349609376	1747.846313476563	518.8556518554689	-430.9952392578126	1763.052368164063	517.7040405273439	-285.3695068359376	1733.31005859375	459.0491333007814	-430.7188110351564	1818.002563476563	459.1851806640626	-381.9345397949219	1709.342041015625	70.79125213623048	-399.226287841797	1732.064819335938	84.53350067138673	-301.3298645019532	1659.1083984375	19.58549308776856	-350.4544982910157	1870.00927734375	24.80444526672364	-303.1842346191407	1881.842895507813	38.4660873413086	-368.0436096191407	1844.714477539063	17.29796791076661	-420.4074707031251	1627.07666015625	948.4324951171877	-96.26744079589847	1674.667846679688	521.1026000976564	-87.6791229248047	1710.83447265625	486.6647949218751	-223.9947509765626	1633.650756835938	483.4887084960939	-82.37294006347658	1687.729370117188	422.2796936035157	-129.0536041259766	1316.680541992188	253.9606018066407	-112.7934722900391	1354.107666015625	226.9991455078126	-202.1031341552735	1262.793701171875	268.7385253906251	-175.371337890625	1334.351806640625	70.77627563476564	-194.6798095703126	1345.530517578125	75.05490112304689	-132.9349060058594	1305.085571289063	101.7973709106446	-92.59754180908205	1608.083740234375	1570.037841796875	-329.2910766601563	1497.93798828125	1308.266967773438	-305.0554199218751	1777.927734375	1256.333251953125	-316.2420043945313	1723.269897460938	1464.726928710938	-318.4372863769532	1496.726684570313	1335.82421875	-422.506561279297	1556.552734375	1490.822509765625	-438.4275207519532	1617.597900390625	1483.524780273438	-516.6514892578126	1686.397583007813	1461.405883789063	-533.2496948242189	1587.5205078125	1125.607177734375	-565.8974609375001	1529.174560546875	1138.773803710938	-484.4646301269532	1535.868530273438	1116.06591796875	-541.8305664062501	1627.545166015625	853.3211059570315	-492.9798889160157	1578.679321289063	859.6235961914065	-564.2045288085939	1640.592163085938	746.3466186523439	-489.0986633300782	1546.057739257813	768.1129150390627	-550.7763671875001	1492.694946289063	1347.42138671875	-207.0017089843751	1549.7646484375	1501.622436523438	-215.4899444580079	1603.137084960938	1503.880737304688	-140.27197265625	1659.771362304688	1497.308715820313	-116.0146713256836	1587.85302734375	1165.880493164063	-31.50472450256348	1558.964721679688	1144.152465820313	-121.5190658569336	1545.648559570313	1137.665161132813	-63.59437942504884	1728.000366210938	907.7161865234377	-35.12516021728516	1659.222534179688	898.1448974609377	11.17483520507813	1772.94287109375	828.4212036132815	-11.99140167236328	1664.611694335938	801.065856933594	12.70399951934815	
